<svg width="203" height="203" viewBox="0 0 203 203" fill="none" xmlns="http://www.w3.org/2000/svg">
<g clip-path="url(#clip0_110_8)">
<path d="M203 98.0998V104.907L202.803 105.998C202.473 108.973 202.239 111.948 201.782 114.854C200.222 124.281 196.844 133.315 191.835 141.453C184.469 153.682 173.761 163.552 160.973 169.898C153.53 173.637 145.489 176.042 137.215 177.003C135.363 177.232 133.517 177.435 131.696 177.631H60.3608C59.9992 177.568 59.6693 177.466 59.3014 177.435C52.1483 177.002 45.1309 175.29 38.5827 172.379C24.2077 165.972 13.5058 155.625 6.50234 141.39C3.42371 135.083 1.42516 128.305 0.589965 121.337L-0.00634766 116.249V109.639C0.0570898 109.277 0.15859 108.91 0.190309 108.548C0.551902 102.236 1.83968 96.0571 4.09171 90.1447C10.1373 74.2536 20.7123 62.4542 35.709 54.791C43.4035 50.8923 51.8389 48.6737 60.4559 48.2823C64.7189 48.0856 68.9819 48.2823 73.1752 48.8786C73.396 48.9042 73.6197 48.8818 73.8311 48.8128C74.0424 48.7438 74.2363 48.6299 74.3995 48.4789C80.3941 42.2217 87.4249 37.0473 95.1816 33.1842C102.666 29.4197 110.752 26.9937 119.072 26.0157C121.058 25.7874 123.037 25.5844 124.985 25.3877H131.062C131.462 25.4511 131.887 25.5209 132.254 25.5526C135.293 25.9142 138.3 26.1489 141.307 26.6755C150.524 28.2614 159.38 31.6617 167.278 36.6859C179.441 44.2706 189.185 55.1718 195.362 68.1065C199.061 75.7063 201.439 83.9025 202.397 92.2952L202.994 98.1124L203 98.0998ZM89.4723 54.1185C89.6055 54.2835 89.6372 54.385 89.7006 54.385C93.8621 56.4974 97.8587 58.9461 101.627 61.7184C101.855 61.8833 102.452 61.8199 102.75 61.6549C113.058 54.9813 124.293 52.7039 136.321 54.8481C148.114 56.9986 157.731 62.9744 165.064 72.5598C173.356 83.3949 176.528 95.6574 174.25 109.265C172.696 118.387 169.093 126.609 162.984 133.453C151.819 145.976 137.837 151.165 121.388 148.983C111.276 147.625 102.521 143.166 95.2831 135.731C85.9959 126.215 76.6452 116.731 67.3326 107.216C66.0765 105.928 64.7253 104.938 62.9363 104.704C61.4385 104.496 59.9139 104.781 58.5915 105.514C57.2691 106.247 56.2204 107.39 55.603 108.77C54.4103 111.282 54.5816 114.156 57.1889 116.763C67.5609 127.135 77.8378 137.609 88.2162 147.987C89.9988 149.77 91.9146 151.425 93.9319 152.91C101.5 158.492 110.058 161.601 119.307 162.857C126.577 163.815 133.777 163.618 140.914 161.962C154.559 158.854 165.857 151.787 174.745 140.85C182.02 131.97 186.636 121.214 188.06 109.823C188.977 103.176 188.799 96.4235 187.534 89.8339C185.453 79.0939 180.994 69.4831 173.825 61.287C160.148 45.656 142.931 38.6842 122.447 40.2384C114.617 40.8998 107.01 43.1834 100.111 46.9438C96.321 48.9338 92.7637 51.3379 89.504 54.1122L89.4723 54.1185ZM84.4861 163.155C84.1879 162.888 83.9215 162.628 83.6297 162.362C79.3984 158.296 75.1354 154.236 70.9422 150.106C70.6016 149.728 70.1828 149.429 69.715 149.23C69.2472 149.031 68.7416 148.936 68.2334 148.951C63.9704 149.053 59.7391 149.084 55.5459 148.127C34.732 143.337 22.6345 120.309 30.3041 100.054C36.3497 84.0928 53.1035 74.3805 69.6227 77.3557C77.0258 78.7133 83.5345 81.9169 88.8823 87.4994C95.391 94.3379 102.065 100.948 108.675 107.723C110.159 109.246 111.878 109.969 113.959 109.671C116.604 109.271 118.749 107.983 119.707 105.306C120.664 102.661 120.201 100.187 118.254 98.1695C111.345 91.0645 104.608 83.7629 97.44 76.956C83.4964 63.742 67.0788 59.8089 48.904 65.4231C24.4869 72.9912 10.1817 98.6263 15.7642 123.938C20.8519 147.035 40.7078 163.193 63.9069 163.225H83.3696C83.6677 163.225 83.9976 163.193 84.4924 163.161L84.4861 163.155Z" fill="white"/>
</g>
<defs>
<clipPath id="clip0_110_8">
<rect width="203" height="203" fill="white"/>
</clipPath>
</defs>
</svg>
