<svg width="195" height="195" viewBox="0 0 195 195" fill="none" xmlns="http://www.w3.org/2000/svg">
<path d="M146.25 39H174.915C180.668 39 185.25 43.5825 185.25 49.335V164.482C185.25 170.235 180.668 175.5 174.915 175.5H20.085C14.3325 175.5 9.75 170.235 9.75 164.482V49.335C9.75 43.5825 14.3325 39 20.085 39H48.75L78 19.5H117L146.25 39ZM97.5 146.25C119.048 146.25 136.5 128.797 136.5 107.25C136.5 85.7025 119.048 68.25 97.5 68.25C75.9525 68.25 58.5 85.7025 58.5 107.25C58.5 128.797 75.9525 146.25 97.5 146.25Z" fill="white"/>
</svg>
