<svg width="77" height="77" viewBox="0 0 77 77" fill="none" xmlns="http://www.w3.org/2000/svg">
<rect width="7.69998" height="7.69998" fill="#E8E8E8"/>
<rect x="7.70007" y="7.70007" width="7.69998" height="7.69998" fill="#E8E8E8"/>
<rect x="15.3995" y="15.3999" width="7.69998" height="7.69998" fill="#E8E8E8"/>
<rect x="23.0997" y="23.1002" width="7.69998" height="7.69998" fill="#E8E8E8"/>
<rect x="30.7999" y="30.8" width="7.69998" height="7.69998" fill="#E8E8E8"/>
<rect x="38.4999" y="38.5005" width="7.69998" height="7.69998" fill="#E8E8E8"/>
<rect x="46.2" y="46.2004" width="7.69998" height="7.69998" fill="#E8E8E8"/>
<rect x="53.8998" y="53.9005" width="7.69998" height="7.69998" fill="#E8E8E8"/>
<rect x="61.6001" y="61.6003" width="7.69998" height="7.69998" fill="#E8E8E8"/>
<rect x="69.2999" y="69.3004" width="7.69998" height="7.69998" fill="#E8E8E8"/>
<rect x="69.2999" width="7.69998" height="7.69998" fill="#E8E8E8"/>
<rect x="61.6001" y="7.70007" width="7.69998" height="7.69998" fill="#E8E8E8"/>
<rect x="53.8998" y="15.4001" width="7.69998" height="7.69998" fill="#E8E8E8"/>
<rect x="46.2" y="23.1002" width="7.69998" height="7.69998" fill="#E8E8E8"/>
<rect x="38.4999" y="30.8" width="7.69998" height="7.69998" fill="#E8E8E8"/>
<rect x="30.7999" y="38.5005" width="7.69998" height="7.69998" fill="#E8E8E8"/>
<rect x="23.0997" y="46.2004" width="7.69998" height="7.69998" fill="#E8E8E8"/>
<rect x="15.3997" y="53.9005" width="7.69998" height="7.69998" fill="#E8E8E8"/>
<rect x="7.70007" y="61.6003" width="7.69998" height="7.69998" fill="#E8E8E8"/>
<rect y="69.3004" width="7.69998" height="7.69998" fill="#E8E8E8"/>
</svg>
