<svg width="47" height="47" viewBox="0 0 47 47" fill="none" xmlns="http://www.w3.org/2000/svg">
<g clip-path="url(#clip0_107_29)">
<path d="M8.58192 0C3.82791 0 0 3.82791 0 8.58192V38.4181C0 43.1721 3.82791 47 8.58192 47H24.7529V28.626H19.8943V22.0107H24.7529V16.359C24.7529 11.9186 27.6236 7.84167 34.2366 7.84167C36.9141 7.84167 38.894 8.09871 38.894 8.09871L38.7383 14.2763C38.7383 14.2763 36.719 14.2572 34.5156 14.2572C32.1309 14.2572 31.7485 15.356 31.7485 17.1801V22.0108H38.9277L38.6149 28.626H31.7485V47.0001H38.4181C43.1721 47.0001 47 43.1722 47 38.4182V8.58197C47 3.82796 43.1721 4.7e-05 38.4181 4.7e-05H8.58187L8.58192 0Z" fill="white"/>
</g>
<defs>
<clipPath id="clip0_107_29">
<rect width="47" height="47" fill="white"/>
</clipPath>
</defs>
</svg>
