<svg width="48" height="48" viewBox="0 0 48 48" fill="none" xmlns="http://www.w3.org/2000/svg">
<g clip-path="url(#clip0_107_31)">
<path d="M23.1319 43.126V25.602C23.6419 25.648 24.1319 25.672 24.6479 25.672C27.0939 25.672 29.3959 25.032 31.3479 23.886V43.122C31.3479 44.766 30.9579 45.98 30.1979 46.79C29.4419 47.596 28.4379 48 27.2159 48C26.0159 48 25.0619 47.596 24.2799 46.764C23.5239 45.958 23.1319 44.744 23.1319 43.126ZM23.1779 1.132C28.2679 -0.654 34.0619 -0.558 38.4159 3.106C39.2259 3.844 40.1499 4.772 40.5179 5.866C40.9579 7.25 38.9779 5.72 38.7059 5.532C37.2859 4.626 35.8699 3.866 34.2819 3.344C25.7199 0.774 17.6239 5.418 12.5899 12.63C10.4859 15.818 9.11589 19.174 7.98989 22.864C7.86989 23.268 7.77189 23.794 7.54989 24.148C7.32589 24.554 7.45389 23.056 7.45389 23.008C7.62189 21.482 7.94189 20.008 8.33589 18.534C10.6599 10.674 15.7939 4.132 23.1799 1.132H23.1779ZM33.0339 15.25C33.0339 16.0432 32.8777 16.8286 32.5741 17.5614C32.2706 18.2942 31.8257 18.9601 31.2648 19.5209C30.7039 20.0818 30.0381 20.5267 29.3053 20.8302C28.5725 21.1338 27.7871 21.29 26.9939 21.29C26.2007 21.29 25.4153 21.1338 24.6825 20.8302C23.9497 20.5267 23.2838 20.0818 22.723 19.5209C22.1621 18.9601 21.7172 18.2942 21.4137 17.5614C21.1101 16.8286 20.9539 16.0432 20.9539 15.25C20.9539 14.4568 21.1101 13.6714 21.4137 12.9386C21.7172 12.2058 22.1621 11.5399 22.723 10.9791C23.2838 10.4182 23.9497 9.97331 24.6825 9.66977C25.4153 9.36623 26.2007 9.21 26.9939 9.21C27.7871 9.21 28.5725 9.36623 29.3053 9.66977C30.0381 9.97331 30.7039 10.4182 31.2648 10.9791C31.8257 11.5399 32.2706 12.2058 32.5741 12.9386C32.8777 13.6714 33.0339 14.4568 33.0339 15.25Z" fill="white"/>
</g>
<defs>
<clipPath id="clip0_107_31">
<rect width="48" height="48" fill="white"/>
</clipPath>
</defs>
</svg>
