<svg width="59" height="59" viewBox="0 0 59 59" fill="none" xmlns="http://www.w3.org/2000/svg">
<path d="M29.5001 21.8196C25.271 21.8196 21.8198 25.2709 21.8198 29.5C21.8198 33.7291 25.271 37.1804 29.5001 37.1804C33.7292 37.1804 37.1805 33.7291 37.1805 29.5C37.1805 25.2709 33.7292 21.8196 29.5001 21.8196ZM52.5355 29.5C52.5355 26.3195 52.5643 23.1679 52.3857 19.9932C52.2071 16.3057 51.3659 13.033 48.6694 10.3365C45.9671 7.63427 42.7002 6.79882 39.0127 6.62021C35.8323 6.44159 32.6806 6.4704 29.5059 6.4704C26.3254 6.4704 23.1738 6.44159 19.9991 6.62021C16.3116 6.79882 13.0389 7.64003 10.3424 10.3365C7.64019 13.0388 6.80474 16.3057 6.62613 19.9932C6.44751 23.1736 6.47632 26.3253 6.47632 29.5C6.47632 32.6747 6.44751 35.8321 6.62613 39.0068C6.80474 42.6943 7.64595 45.967 10.3424 48.6635C13.0447 51.3657 16.3116 52.2012 19.9991 52.3798C23.1795 52.5584 26.3312 52.5296 29.5059 52.5296C32.6864 52.5296 35.838 52.5584 39.0127 52.3798C42.7002 52.2012 45.9729 51.36 48.6694 48.6635C51.3716 45.9612 52.2071 42.6943 52.3857 39.0068C52.5701 35.8321 52.5355 32.6805 52.5355 29.5ZM29.5001 41.3173C22.9606 41.3173 17.6829 36.0395 17.6829 29.5C17.6829 22.9604 22.9606 17.6827 29.5001 17.6827C36.0397 17.6827 41.3174 22.9604 41.3174 29.5C41.3174 36.0395 36.0397 41.3173 29.5001 41.3173ZM41.8014 19.9586C40.2746 19.9586 39.0416 18.7256 39.0416 17.1987C39.0416 15.6719 40.2746 14.4389 41.8014 14.4389C43.3283 14.4389 44.5613 15.6719 44.5613 17.1987C44.5617 17.5613 44.4907 17.9204 44.3521 18.2554C44.2136 18.5905 44.0103 18.8949 43.754 19.1513C43.4976 19.4076 43.1932 19.6109 42.8581 19.7494C42.5231 19.888 42.164 19.959 41.8014 19.9586Z" fill="white"/>
</svg>
